<mxfile host="app.diagrams.net" modified="2021-07-26T17:08:45.565Z" agent="5.0 (Windows NT 10.0; Win64; x64) AppleWebKit/537.36 (KHTML, like Gecko) Chrome/91.0.4472.164 Safari/537.36" etag="KDHPW6gZpvF3L4d9_4Le" version="14.9.2" type="github">
  <diagram id="4t721WOiBh2txqYH8A7h" name="Page-1">
    <mxGraphModel dx="920" dy="513" grid="1" gridSize="10" guides="1" tooltips="1" connect="1" arrows="1" fold="1" page="1" pageScale="1" pageWidth="850" pageHeight="1100" math="0" shadow="0">
      <root>
        <mxCell id="0" />
        <mxCell id="1" parent="0" />
        <mxCell id="pKxNtTWIirbUipDDc8tY-1" value="" style="shape=umlActor;verticalLabelPosition=bottom;verticalAlign=top;html=1;outlineConnect=0;fillColor=#dae8fc;strokeColor=#6c8ebf;" vertex="1" parent="1">
          <mxGeometry x="10" y="185" width="30" height="60" as="geometry" />
        </mxCell>
        <mxCell id="pKxNtTWIirbUipDDc8tY-3" value="" style="shape=umlActor;verticalLabelPosition=bottom;verticalAlign=top;html=1;outlineConnect=0;fillColor=#dae8fc;strokeColor=#6c8ebf;" vertex="1" parent="1">
          <mxGeometry x="40" y="185" width="30" height="60" as="geometry" />
        </mxCell>
        <mxCell id="pKxNtTWIirbUipDDc8tY-4" value="" style="shape=umlActor;verticalLabelPosition=bottom;verticalAlign=top;html=1;outlineConnect=0;fillColor=#dae8fc;strokeColor=#6c8ebf;" vertex="1" parent="1">
          <mxGeometry x="70" y="185" width="30" height="60" as="geometry" />
        </mxCell>
        <mxCell id="pKxNtTWIirbUipDDc8tY-7" value="" style="shape=umlActor;verticalLabelPosition=bottom;verticalAlign=top;html=1;outlineConnect=0;fillColor=#dae8fc;strokeColor=#6c8ebf;" vertex="1" parent="1">
          <mxGeometry x="10" y="245" width="30" height="60" as="geometry" />
        </mxCell>
        <mxCell id="pKxNtTWIirbUipDDc8tY-8" value="" style="shape=umlActor;verticalLabelPosition=bottom;verticalAlign=top;html=1;outlineConnect=0;fillColor=#dae8fc;strokeColor=#6c8ebf;" vertex="1" parent="1">
          <mxGeometry x="40" y="245" width="30" height="60" as="geometry" />
        </mxCell>
        <mxCell id="pKxNtTWIirbUipDDc8tY-9" value="" style="shape=umlActor;verticalLabelPosition=bottom;verticalAlign=top;html=1;outlineConnect=0;fillColor=#dae8fc;strokeColor=#6c8ebf;" vertex="1" parent="1">
          <mxGeometry x="70" y="245" width="30" height="60" as="geometry" />
        </mxCell>
        <mxCell id="pKxNtTWIirbUipDDc8tY-10" value="" style="shape=umlActor;verticalLabelPosition=bottom;verticalAlign=top;html=1;outlineConnect=0;fillColor=#dae8fc;strokeColor=#6c8ebf;" vertex="1" parent="1">
          <mxGeometry x="180" y="215" width="30" height="60" as="geometry" />
        </mxCell>
        <mxCell id="pKxNtTWIirbUipDDc8tY-11" value="" style="shape=umlActor;verticalLabelPosition=bottom;verticalAlign=top;html=1;outlineConnect=0;fillColor=#dae8fc;strokeColor=#6c8ebf;" vertex="1" parent="1">
          <mxGeometry x="210" y="215" width="30" height="60" as="geometry" />
        </mxCell>
        <mxCell id="pKxNtTWIirbUipDDc8tY-12" value="" style="shape=umlActor;verticalLabelPosition=bottom;verticalAlign=top;html=1;outlineConnect=0;fillColor=#dae8fc;strokeColor=#6c8ebf;" vertex="1" parent="1">
          <mxGeometry x="240" y="215" width="30" height="60" as="geometry" />
        </mxCell>
        <mxCell id="pKxNtTWIirbUipDDc8tY-13" value="" style="shape=umlActor;verticalLabelPosition=bottom;verticalAlign=top;html=1;outlineConnect=0;fillColor=#dae8fc;strokeColor=#6c8ebf;" vertex="1" parent="1">
          <mxGeometry x="270" y="215" width="30" height="60" as="geometry" />
        </mxCell>
        <mxCell id="pKxNtTWIirbUipDDc8tY-16" value="" style="shape=umlActor;verticalLabelPosition=bottom;verticalAlign=top;html=1;outlineConnect=0;fillColor=#dae8fc;strokeColor=#6c8ebf;" vertex="1" parent="1">
          <mxGeometry x="100" y="185" width="30" height="60" as="geometry" />
        </mxCell>
        <mxCell id="pKxNtTWIirbUipDDc8tY-17" value="" style="shape=umlActor;verticalLabelPosition=bottom;verticalAlign=top;html=1;outlineConnect=0;fillColor=#dae8fc;strokeColor=#6c8ebf;" vertex="1" parent="1">
          <mxGeometry x="100" y="245" width="30" height="60" as="geometry" />
        </mxCell>
        <mxCell id="pKxNtTWIirbUipDDc8tY-18" value="" style="shape=umlActor;verticalLabelPosition=bottom;verticalAlign=top;html=1;outlineConnect=0;fillColor=#dae8fc;strokeColor=#6c8ebf;" vertex="1" parent="1">
          <mxGeometry x="360" y="140" width="30" height="60" as="geometry" />
        </mxCell>
        <mxCell id="pKxNtTWIirbUipDDc8tY-19" value="" style="shape=umlActor;verticalLabelPosition=bottom;verticalAlign=top;html=1;outlineConnect=0;fillColor=#dae8fc;strokeColor=#6c8ebf;" vertex="1" parent="1">
          <mxGeometry x="390" y="140" width="30" height="60" as="geometry" />
        </mxCell>
        <mxCell id="pKxNtTWIirbUipDDc8tY-20" value="" style="shape=umlActor;verticalLabelPosition=bottom;verticalAlign=top;html=1;outlineConnect=0;fillColor=#dae8fc;strokeColor=#6c8ebf;" vertex="1" parent="1">
          <mxGeometry x="360" y="310" width="30" height="60" as="geometry" />
        </mxCell>
        <mxCell id="pKxNtTWIirbUipDDc8tY-21" value="" style="shape=umlActor;verticalLabelPosition=bottom;verticalAlign=top;html=1;outlineConnect=0;fillColor=#dae8fc;strokeColor=#6c8ebf;" vertex="1" parent="1">
          <mxGeometry x="390" y="310" width="30" height="60" as="geometry" />
        </mxCell>
        <mxCell id="pKxNtTWIirbUipDDc8tY-22" value="" style="shape=umlActor;verticalLabelPosition=bottom;verticalAlign=top;html=1;outlineConnect=0;fillColor=#dae8fc;strokeColor=#6c8ebf;" vertex="1" parent="1">
          <mxGeometry x="500" y="80" width="30" height="60" as="geometry" />
        </mxCell>
        <mxCell id="pKxNtTWIirbUipDDc8tY-23" value="" style="shape=umlActor;verticalLabelPosition=bottom;verticalAlign=top;html=1;outlineConnect=0;fillColor=#dae8fc;strokeColor=#6c8ebf;" vertex="1" parent="1">
          <mxGeometry x="500" y="160" width="30" height="60" as="geometry" />
        </mxCell>
        <mxCell id="pKxNtTWIirbUipDDc8tY-24" value="" style="shape=umlActor;verticalLabelPosition=bottom;verticalAlign=top;html=1;outlineConnect=0;fillColor=#dae8fc;strokeColor=#6c8ebf;" vertex="1" parent="1">
          <mxGeometry x="500" y="270" width="30" height="60" as="geometry" />
        </mxCell>
        <mxCell id="pKxNtTWIirbUipDDc8tY-25" value="" style="shape=umlActor;verticalLabelPosition=bottom;verticalAlign=top;html=1;outlineConnect=0;fillColor=#dae8fc;strokeColor=#6c8ebf;" vertex="1" parent="1">
          <mxGeometry x="500" y="350" width="30" height="60" as="geometry" />
        </mxCell>
        <mxCell id="pKxNtTWIirbUipDDc8tY-28" value="" style="rounded=0;whiteSpace=wrap;html=1;" vertex="1" parent="1">
          <mxGeometry x="590" y="80" width="60" height="330" as="geometry" />
        </mxCell>
      </root>
    </mxGraphModel>
  </diagram>
</mxfile>
